<svg height="512" viewBox="0 0 50 58" width="512" xmlns="http://www.w3.org/2000/svg"><g id="Page-1" fill="none" fill-rule="evenodd"><g id="007---Gamer" fill-rule="nonzero"><path id="Shape" d="m45 14v6s-39.98 0-39.98-.01-.02 0-.02-.01v-5.98c0-7.7319865 6.2680135-14 14-14h12c7.7319865 0 14 6.2680135 14 14z" fill="#2c3e50"/><path id="Shape" d="m47 58h-44l.51-.72c2.81937073-3.9395779 7.3655062-6.2778032 12.21-6.28h1.74c.11-.86.2-1.73.26-2.56.09-1.01.14-1.97.18-2.84h14.2c.04.87.09 1.83.18 2.84.06.83.15 1.7.26 2.56h1.74c4.8444938.0021968 9.3906293 2.3404221 12.21 6.28z" fill="#fdd7ad"/><path id="Shape" d="m32.28 48.44c-2.98 2.56-4.17 2.56-7.28 2.56s-4.3 0-7.28-2.56c.09-1.01.14-1.97.18-2.84h14.2c.04.87.09 1.83.18 2.84z" fill="#f9c795"/><path id="Shape" d="m40 14 1 5s-1.87 17.56-1.67 17.74c-1.1034932 2.5930672-2.786575 4.8987524-4.92 6.74-4.7 4.52-5.65 4.52-9.41 4.52s-4.71 0-9.41-4.52c-2.133425-1.8412476-3.8165068-4.1469328-4.92-6.74.2-.18-1.67-17.74-1.67-17.74l1-5c0-5.5 30-5.5 30 0z" fill="#fdd7ad"/><path id="Shape" d="m41 14v5s-.08.77-.21 2h-4.79c-2.7614237 0-5-2.2385763-5-5 0 2.7614237-2.2385763 5-5 5h-4c-.5522847 0-1-.4477153-1-1v-2s-3.51 3.51-11.79 2.93c-.13-1.19-.21-1.93-.21-1.93v-5c.0159279-5.51623648 4.4837635-9.9840721 10-10h12c5.5162365.0159279 9.9840721 4.48376352 10 10z" fill="#a56a43"/><path id="Shape" d="m47 58h-12c1.47-.73 1.86-4.7 1.96-6.76 3.8411216.6977544 7.2594161 2.8642285 9.53 6.04z" fill="#2fa8cc"/><path id="Shape" d="m15 58h-12l.51-.72c2.27058394-3.1757715 5.68887845-5.3422456 9.53-6.04.1 2.06.49 6.03 1.96 6.76z" fill="#2fa8cc"/><path id="Shape" d="m4 34h-2.086c-1.07925561-.027297-1.93413416-.920587-1.914-2v-8c-.02013416-1.079413.83474439-1.972703 1.914-2h2.086z" fill="#2c3e50"/><path id="Shape" d="m11 20v16c0 .5522847-.4477153 1-1 1h-3c-1.65685425 0-3-1.3431458-3-3v-12c.00603283-1.6543489 1.34565107-2.9939672 3-3h3c.5522847 0 1 .4477153 1 1z" fill="#35495e"/><path id="Shape" d="m25 43c-2.1699741.0632407-4.2655165-.7940101-5.769-2.36-.3534622-.424707-.295707-1.0555377.129-1.409.424707-.3534622 1.0555378-.295707 1.409.129 1.1225741 1.1086785 2.6544726 1.7024656 4.231 1.64 1.5794693.0625645 3.1139948-.5335716 4.237-1.646.3551191-.4230501.9859499-.4781191 1.409-.123s.4781191.9859499.123 1.409c-1.5036274 1.5657782-3.5990716 2.4229889-5.769 2.36z" fill="#802d40"/><path id="Shape" d="m26 36h-2c-.5522847 0-1-.4477153-1-1s.4477153-1 1-1h2c.5522847 0 1 .4477153 1 1s-.4477153 1-1 1z" fill="#f09372"/><path id="Shape" d="m31 13c-.5522847 0-1-.4477153-1-1v-2c0-.55228475.4477153-1 1-1s1 .44771525 1 1v2c0 .5522847-.4477153 1-1 1z" fill="#805333"/><circle id="Oval" cx="18" cy="27" fill="#ecf0f1" r="4"/><circle id="Oval" cx="32" cy="27" fill="#ecf0f1" r="4"/><path id="Shape" d="m20 32h-5c-.5522847 0-1-.4477153-1-1s.4477153-1 1-1h5c.5522847 0 1 .4477153 1 1s-.4477153 1-1 1z" fill="#f9c795"/><path id="Shape" d="m35 32h-5c-.5522847 0-1-.4477153-1-1s.4477153-1 1-1h5c.5522847 0 1 .4477153 1 1s-.4477153 1-1 1z" fill="#f9c795"/><path id="Shape" d="m40 44h-10.29c-.6255898.0012659-1.2425297-.1461142-1.8-.43l-1.571-.785c-.4676806-.2610182-.6466769-.8441679-.4059755-1.3226221.2407013-.4784543.8156296-.6823187 1.3039755-.4623779l1.58.79c.2769289.1394756.5829339.2114364.893.21h10.29c1.1045695 0 2-.8954305 2-2v-4c0-.5522847.4477153-1 1-1s1 .4477153 1 1v4c0 2.209139-1.790861 4-4 4z" fill="#3f5c6c"/><path id="Shape" d="m46 22h2.086c1.0792556.027297 1.9341342.920587 1.914 2v8c.0201342 1.079413-.8347444 1.972703-1.914 2h-2.086z" fill="#2c3e50"/><path id="Shape" d="m46 22v12c0 1.6568542-1.3431458 3-3 3h-3c-.5522847 0-1-.4477153-1-1v-16c0-.5522847.4477153-1 1-1h3c1.6543489.0060328 2.9939672 1.3456511 3 3z" fill="#35495e"/><circle id="Oval" cx="18.5" cy="27" fill="#3f5c6c" r="2.5"/><circle id="Oval" cx="31.5" cy="27" fill="#3f5c6c" r="2.5"/><g fill="#ecf0f1"><circle id="Oval" cx="17" cy="26" r="1"/><circle id="Oval" cx="30" cy="26" r="1"/></g></g></g></svg>