<svg height="512pt" viewBox="0 -8 512 511" width="512pt" xmlns="http://www.w3.org/2000/svg"><path d="m320 344.496094v-40l-18.601562-1.796875c-24.597657 21.097656-51.699219 33.796875-73.398438 33.796875s-48.800781-12.597656-73.398438-33.796875l-18.601562 1.796875v40c-79.601562 56.902344-136 40-136 112v40h456s0-8 0-40c0-72-56.5-55.097656-136-112zm0 0" fill="#5d9cec"/><path d="m228 436.496094c84.800781 0 119.398438-47.097656 130.699219-68.398438-6.699219-3.5-13.699219-7.300781-20.898438-11.800781-8.300781 15.699219-36.601562 56.199219-109.800781 56.199219-73.601562 0-101.601562-40.296875-109.800781-56.199219-7.199219 4.402344-14.199219 8.300781-20.898438 11.800781 11.300781 21.300782 45.800781 68.398438 130.699219 68.398438zm0 0" fill="#e6e9ed"/><path d="m228 412.496094c73.199219 0 101.601562-40.5 109.800781-56.199219-5.800781-3.597656-11.699219-7.398437-17.800781-11.800781v-40l-18.601562-1.796875c-24.597657 21.097656-51.699219 33.796875-73.398438 33.796875s-48.800781-12.597656-73.398438-33.796875l-18.601562 1.796875v40c-6.101562 4.402344-12 8.203125-17.800781 11.800781 8.101562 15.800781 36.199219 56.199219 109.800781 56.199219zm0 0" fill="#e5b6a8"/><path d="m367.300781 176.496094.597657 16c0 44.703125-20.699219 87.703125-48 120-28.699219 33.902344-64.699219 56-92 56-27.296876 0-63.296876-22.097656-92-56-27.296876-32.296875-48-75.296875-48-120v-14.398438c45-23.699218 155.402343-70.800781 248-65.398437zm0 0" fill="#f0c7b7"/><path d="m112 24.496094c-.398438.203125 275.101562-113.398438 255.398438 152l-31.398438-55.796875c-120.800781-7.101563-267.800781 68.199219-271.898438 70.597656-.101562.199219-.101562.199219-.101562.199219 0-120 70.300781-153.597656 70.300781-153.597656zm0 0" fill="#656d78"/><path d="m212 208.496094c0 4.402344-3.601562 8-8 8h-56c-4.398438 0-8-3.597656-8-8v-16c0-4.398438 3.601562-8 8-8h56c4.398438 0 8 3.601562 8 8zm0 0" fill="#5d9cec"/><path d="m159.101562 216.496094h16.597657l8.601562-32h-16.601562zm0 0" fill="#87bcf4"/><path d="m180 216.496094h4.300781l8.5-32h-4.199219zm0 0" fill="#87bcf4"/><path d="m316 208.496094c0 4.402344-3.601562 8-8 8h-56c-4.398438 0-8-3.597656-8-8v-16c0-4.398438 3.601562-8 8-8h56c4.398438 0 8 3.601562 8 8zm0 0" fill="#5d9cec"/><path d="m263.101562 216.496094h16.597657l8.601562-32h-16.601562zm0 0" fill="#87bcf4"/><path d="m284 216.496094h4.300781l8.5-32h-4.199219zm0 0" fill="#87bcf4"/><path d="m244 204.699219h-32c-2.199219 0-4-1.800781-4-4 0-2.203125 1.800781-4 4-4h32c2.199219 0 4 1.796875 4 4 0 2.199219-1.800781 4-4 4zm0 0" fill="#545c66"/><path d="m204 220.496094h-56c-6.601562 0-12-5.398438-12-12v-16c0-6.597656 5.398438-12 12-12h56c6.601562 0 12 5.402344 12 12v16c0 6.601562-5.398438 12-12 12zm-56-32c-2.199219 0-4 1.800781-4 4v16c0 2.203125 1.800781 4 4 4h56c2.199219 0 4-1.796875 4-4v-16c0-2.199219-1.800781-4-4-4zm0 0" fill="#656d78"/><path d="m308 220.496094h-56c-6.601562 0-12-5.398438-12-12v-16c0-6.597656 5.398438-12 12-12h56c6.601562 0 12 5.402344 12 12v16c0 6.601562-5.398438 12-12 12zm-56-32c-2.199219 0-4 1.800781-4 4v16c0 2.203125 1.800781 4 4 4h56c2.199219 0 4-1.796875 4-4v-16c0-2.199219-1.800781-4-4-4zm0 0" fill="#656d78"/><g fill="#545c66"><path d="m396 376.496094h8v8h-8zm0 0"/><path d="m424 332.496094h-104.800781c-2.199219 0-4-1.796875-4-4 0-2.199219 1.800781-4 4-4h104.800781c2.199219 0 4 1.800781 4 4 0 2.203125-1.800781 4-4 4zm0 0"/><path d="m400 380.496094c-2.199219 0-4-1.796875-4-4 0-11 9-20 20-20 2.199219 0 4 1.800781 4 4 0 2.203125-1.800781 4-4 4-6.601562 0-12 5.402344-12 12 0 2.203125-1.800781 4-4 4zm0 0"/><path d="m424 364.496094c-2.199219 0-4-1.796875-4-4 0-2.199219 1.800781-4 4-4 6.601562 0 12-5.398438 12-12 0-6.597656-5.398438-12-12-12-2.199219 0-4-1.796875-4-4 0-2.199219 1.800781-4 4-4 11 0 20 9 20 20s-9 20-20 20zm0 0"/><path d="m424 364.496094h-8c-2.199219 0-4-1.796875-4-4 0-2.199219 1.800781-4 4-4h8c2.199219 0 4 1.800781 4 4 0 2.203125-1.800781 4-4 4zm0 0"/></g><path d="m483 450.398438c1 4.300781-1.601562 8.597656-5.898438 9.699218-4.203124 1-8.601562-1.601562-9.601562-5.898437-1-4.300781 1.601562-8.601563 5.800781-9.703125h.097657c4.300781-1 8.601562 1.703125 9.601562 5.902344zm0 0" fill="#ccd1d9"/><path d="m451.898438 457.898438c1 4.300781-1.597657 8.597656-5.898438 9.699218-4.300781 1-8.601562-1.601562-9.601562-5.898437-1-4.300781 1.601562-8.601563 5.902343-9.703125 4.300781-1 8.597657 1.601562 9.597657 5.902344zm0 0" fill="#ccd1d9"/><path d="m446 467.496094c4.300781-1 7-5.398438 5.898438-9.699219-1-4.199219-5.296876-6.898437-9.597657-5.898437l31-7.402344c-4.199219 1.101562-6.902343 5.402344-5.800781 9.703125 1 4.296875 5.398438 7 9.601562 5.898437zm0 0" fill="#545c66"/><path d="m344 416.496094c13.300781 0 24 10.703125 24 24 0 13.203125-10.699219 24-24 24s-24-10.796875-24-24c0-13.296875 10.699219-24 24-24zm0 0" fill="#ccd1d9"/><path d="m438.601562 436.398438 31-7.402344c4.296876-1 7-5.398438 5.898438-9.699219-1-4.199219-5.300781-7-9.601562-5.898437l-31.097657 7.5c-4.300781 1-7 5.398437-5.902343 9.699218 1.101562 4.199219 5.402343 6.898438 9.703124 5.800782zm34.796876 8.097656-31 7.402344c-4.296876 1-7 5.398437-5.898438 9.699218 1 4.300782 5.300781 7 9.601562 5.898438l31.097657-7.398438c4.300781-1 7-5.398437 5.902343-9.699218-1.101562-4.199219-5.402343-6.902344-9.703124-5.902344zm-129.398438 20c13.300781 0 24-10.796875 24-24 0-13.296875-10.699219-24-24-24s-24 10.703125-24 24c0 13.203125 10.699219 24 24 24zm72.800781 16h-33.601562c-10.097657 9.800781-23.898438 16-39.199219 16-31 0-56-25.097656-56-56 0-31 25-56 56-56h112c31 0 56 25 56 56 0 30.902344-25 56-56 56-15.300781 0-29.101562-6.199219-39.199219-16zm0 0" fill="#656d78"/><path d="m344.398438 452.496094c-2.199219 0-4-1.796875-4-4v-16c0-2.199219 1.800781-4 4-4 2.203124 0 4 1.800781 4 4v16c0 2.203125-1.796876 4-4 4zm0 0" fill="#656d78"/><path d="m352.398438 444.496094h-16.398438c-2.199219 0-4-1.796875-4-4 0-2.199219 1.800781-4 4-4h16.398438c2.203124 0 4 1.800781 4 4 0 2.203125-1.796876 4-4 4zm0 0" fill="#656d78"/><path d="m392.398438 460.496094h-8c-2.199219 0-4-1.796875-4-4 0-2.199219 1.800781-4 4-4h8c2.203124 0 4 1.800781 4 4 0 2.203125-1.796876 4-4 4zm0 0" fill="#545c66"/><path d="m416.398438 460.496094h-8c-2.199219 0-4-1.796875-4-4 0-2.199219 1.800781-4 4-4h8c2.203124 0 4 1.800781 4 4 0 2.203125-1.796876 4-4 4zm0 0" fill="#545c66"/><path d="m475.601562 419.296875c1 4.300781-1.601562 8.601563-5.902343 9.699219-4.199219 1-8.597657-1.597656-9.597657-5.898438-1-4.300781 1.597657-8.601562 5.796876-9.699218h.101562c4.199219-1 8.601562 1.597656 9.601562 5.898437zm0 0" fill="#ccd1d9"/><path d="m444.5 426.699219c1 4.296875-1.601562 8.597656-5.898438 9.699219-4.300781 1-8.601562-1.601563-9.601562-5.902344-1-4.296875 1.601562-8.597656 5.898438-9.699219 4.300781-1 8.5 1.699219 9.601562 5.902344zm0 0" fill="#ccd1d9"/><path d="m460.101562 423.097656c1 4.300782 5.296876 7 9.597657 5.898438l-31 7.402344c4.199219-1.101563 6.902343-5.402344 5.800781-9.699219-1-4.203125-5.398438-6.902344-9.601562-5.902344l31.101562-7.5c-4.300781 1.101563-7 5.402344-5.898438 9.800781zm0 0" fill="#545c66"/></svg>